<svg width="103" height="20" viewBox="0 0 103 20" fill="none" xmlns="http://www.w3.org/2000/svg">
<path d="M9.52447 1.46353C9.67415 1.00287 10.3259 1.00287 10.4755 1.46353L12.1329 6.56434C12.1998 6.77035 12.3918 6.90983 12.6084 6.90983H17.9717C18.4561 6.90983 18.6575 7.52964 18.2656 7.81434L13.9266 10.9668C13.7514 11.0941 13.678 11.3198 13.745 11.5258L15.4023 16.6266C15.552 17.0873 15.0248 17.4704 14.6329 17.1857L10.2939 14.0332C10.1186 13.9059 9.88135 13.9059 9.70611 14.0332L5.3671 17.1857C4.97524 17.4704 4.448 17.0873 4.59768 16.6266L6.25503 11.5258C6.32197 11.3198 6.24864 11.0941 6.07339 10.9668L1.73438 7.81434C1.34253 7.52964 1.54392 6.90983 2.02828 6.90983H7.39159C7.6082 6.90983 7.80018 6.77035 7.86712 6.56434L9.52447 1.46353Z" fill="#FF532E"/>
<path d="M30.0268 1.38706C30.1808 0.935657 30.8192 0.935656 30.9732 1.38706L32.7419 6.57128C32.811 6.77374 33.0012 6.90983 33.2151 6.90983H38.8848C39.375 6.90983 39.5724 7.54204 39.1693 7.821L34.6251 10.9653C34.4412 11.0926 34.3642 11.3264 34.4364 11.538L36.1819 16.6543C36.3376 17.1107 35.8207 17.5013 35.4242 17.2269L30.7845 14.0165C30.6133 13.8981 30.3867 13.8981 30.2155 14.0165L25.5759 17.2269C25.1793 17.5013 24.6624 17.1107 24.8181 16.6543L26.5636 11.538C26.6358 11.3264 26.5588 11.0926 26.3749 10.9653L21.8307 7.821C21.4276 7.54204 21.625 6.90983 22.1152 6.90983H27.7849C27.9988 6.90983 28.189 6.77374 28.2581 6.57128L30.0268 1.38706Z" fill="#FF532E"/>
<path d="M51.0268 1.38706C51.1808 0.935657 51.8192 0.935656 51.9732 1.38706L53.7419 6.57128C53.811 6.77374 54.0012 6.90983 54.2151 6.90983H59.8848C60.375 6.90983 60.5724 7.54204 60.1693 7.821L55.6251 10.9653C55.4412 11.0926 55.3642 11.3264 55.4364 11.538L57.1819 16.6543C57.3376 17.1107 56.8207 17.5013 56.4242 17.2269L51.7845 14.0165C51.6133 13.8981 51.3867 13.8981 51.2155 14.0165L46.5759 17.2269C46.1793 17.5013 45.6624 17.1107 45.8181 16.6543L47.5636 11.538C47.6358 11.3264 47.5588 11.0926 47.3749 10.9653L42.8307 7.821C42.4276 7.54204 42.625 6.90983 43.1152 6.90983H48.7849C48.9988 6.90983 49.189 6.77374 49.2581 6.57128L51.0268 1.38706Z" fill="#FF532E"/>
<path d="M72.0268 1.38706C72.1808 0.935657 72.8192 0.935656 72.9732 1.38706L74.7419 6.57128C74.811 6.77374 75.0012 6.90983 75.2151 6.90983H80.8848C81.375 6.90983 81.5724 7.54204 81.1693 7.821L76.6251 10.9653C76.4412 11.0926 76.3642 11.3264 76.4364 11.538L78.1819 16.6543C78.3376 17.1107 77.8207 17.5013 77.4242 17.2269L72.7845 14.0165C72.6133 13.8981 72.3867 13.8981 72.2155 14.0165L67.5759 17.2269C67.1793 17.5013 66.6624 17.1107 66.8181 16.6543L68.5636 11.538C68.6358 11.3264 68.5588 11.0926 68.3749 10.9653L63.8307 7.821C63.4276 7.54204 63.625 6.90983 64.1152 6.90983H69.7849C69.9988 6.90983 70.189 6.77374 70.2581 6.57128L72.0268 1.38706Z" fill="#FF532E"/>
<path d="M92.5245 1.46353C92.6741 1.00287 93.3259 1.00287 93.4755 1.46353L95.1329 6.56434C95.1998 6.77035 95.3918 6.90983 95.6084 6.90983H100.972C101.456 6.90983 101.657 7.52964 101.266 7.81434L96.9266 10.9668C96.7514 11.0941 96.678 11.3198 96.745 11.5258L98.4023 16.6266C98.552 17.0873 98.0248 17.4704 97.6329 17.1857L93.2939 14.0332C93.1186 13.9059 92.8814 13.9059 92.7061 14.0332L88.3671 17.1857C87.9752 17.4704 87.448 17.0873 87.5977 16.6266L89.255 11.5258C89.322 11.3198 89.2486 11.0941 89.0734 10.9668L84.7344 7.81434C84.3425 7.52964 84.5439 6.90983 85.0283 6.90983H90.3916C90.6082 6.90983 90.8002 6.77035 90.8671 6.56434L92.5245 1.46353Z" fill="#FF532E"/>
</svg>
